<svg xmlns="http://www.w3.org/2000/svg" viewBox="0 0 300 68" width="300" height="68">
  <defs>
    <clipPath id="mz1"><rect x="14" y="0" width="29" height="68"/></clipPath>
    <clipPath id="mz2"><rect x="43" y="0" width="29" height="68"/></clipPath>
    <clipPath id="mz3"><rect x="72" y="0" width="29" height="68"/></clipPath>
    <clipPath id="mz4"><rect x="101" y="0" width="29" height="68"/></clipPath>
    <clipPath id="mz5"><rect x="130" y="0" width="29" height="68"/></clipPath>
  </defs>

  <rect width="300" height="68" fill="#080c18"/>

  <!-- Same geometry — white only, depth via opacity -->

  <!-- Zone 1: B front -->
  <path clip-path="url(#mz1)" d="M14,32 C21,49 36,49 43,32 C50,15 65,15 72,32 C79,49 94,49 101,32 C108,15 123,15 130,32 C137,49 152,49 159,32" fill="none" stroke="#ffffff" stroke-width="2.5" opacity="0.14"/>
  <path clip-path="url(#mz1)" d="M14,32 C21,15 36,15 43,32 C50,49 65,49 72,32 C79,15 94,15 101,32 C108,49 123,49 130,32 C137,15 152,15 159,32" fill="none" stroke="#ffffff" stroke-width="2.5" opacity="0.9"/>

  <!-- Zone 2: A front -->
  <path clip-path="url(#mz2)" d="M14,32 C21,15 36,15 43,32 C50,49 65,49 72,32 C79,15 94,15 101,32 C108,49 123,49 130,32 C137,15 152,15 159,32" fill="none" stroke="#ffffff" stroke-width="2.5" opacity="0.14"/>
  <path clip-path="url(#mz2)" d="M14,32 C21,49 36,49 43,32 C50,15 65,15 72,32 C79,49 94,49 101,32 C108,15 123,15 130,32 C137,49 152,49 159,32" fill="none" stroke="#ffffff" stroke-width="2.5" opacity="0.9"/>

  <!-- Zone 3: B front -->
  <path clip-path="url(#mz3)" d="M14,32 C21,49 36,49 43,32 C50,15 65,15 72,32 C79,49 94,49 101,32 C108,15 123,15 130,32 C137,49 152,49 159,32" fill="none" stroke="#ffffff" stroke-width="2.5" opacity="0.14"/>
  <path clip-path="url(#mz3)" d="M14,32 C21,15 36,15 43,32 C50,49 65,49 72,32 C79,15 94,15 101,32 C108,49 123,49 130,32 C137,15 152,15 159,32" fill="none" stroke="#ffffff" stroke-width="2.5" opacity="0.9"/>

  <!-- Zone 4: A front -->
  <path clip-path="url(#mz4)" d="M14,32 C21,15 36,15 43,32 C50,49 65,49 72,32 C79,15 94,15 101,32 C108,49 123,49 130,32 C137,15 152,15 159,32" fill="none" stroke="#ffffff" stroke-width="2.5" opacity="0.14"/>
  <path clip-path="url(#mz4)" d="M14,32 C21,49 36,49 43,32 C50,15 65,15 72,32 C79,49 94,49 101,32 C108,15 123,15 130,32 C137,49 152,49 159,32" fill="none" stroke="#ffffff" stroke-width="2.5" opacity="0.9"/>

  <!-- Zone 5: B front -->
  <path clip-path="url(#mz5)" d="M14,32 C21,49 36,49 43,32 C50,15 65,15 72,32 C79,49 94,49 101,32 C108,15 123,15 130,32 C137,49 152,49 159,32" fill="none" stroke="#ffffff" stroke-width="2.5" opacity="0.14"/>
  <path clip-path="url(#mz5)" d="M14,32 C21,15 36,15 43,32 C50,49 65,49 72,32 C79,15 94,15 101,32 C108,49 123,49 130,32 C137,15 152,15 159,32" fill="none" stroke="#ffffff" stroke-width="2.5" opacity="0.9"/>

  <!-- Nodes — white ring, dark fill -->
  <circle cx="43"  cy="32" r="10.5" fill="#080c18" stroke="#ffffff" stroke-width="0.8"/>
  <text x="43"  y="36.5" font-family="monospace" font-size="11" fill="#ffffff" text-anchor="middle" font-weight="bold">T</text>

  <circle cx="72"  cy="32" r="10.5" fill="#080c18" stroke="#ffffff" stroke-width="0.8"/>
  <text x="72"  y="36.5" font-family="monospace" font-size="11" fill="#ffffff" text-anchor="middle" font-weight="bold">N</text>

  <circle cx="101" cy="32" r="10.5" fill="#080c18" stroke="#ffffff" stroke-width="0.8"/>
  <text x="101" y="36.5" font-family="monospace" font-size="11" fill="#ffffff" text-anchor="middle" font-weight="bold">E</text>

  <circle cx="130" cy="32" r="10.5" fill="#080c18" stroke="#ffffff" stroke-width="0.8"/>
  <text x="130" y="36.5" font-family="monospace" font-size="11" fill="#ffffff" text-anchor="middle" font-weight="bold">P</text>

  <!-- Cursor -->
  <text x="163" y="37" font-family="monospace" font-size="12" fill="#ffffff" opacity="0.6">›</text>

  <!-- .XYZ -->
  <text x="175" y="37" font-family="monospace" font-size="12" fill="#ffffff" opacity="0.85" letter-spacing="0.5">.XYZ</text>

  <!-- Tagline -->
  <text x="14" y="54" font-family="monospace" font-size="7.5" fill="#ffffff40" letter-spacing="2.5">THE NEVER ENDING PROMPT</text>

  <!-- Slogan -->
  <text x="14" y="64" font-family="monospace" font-size="6.5" fill="#ffffff18" letter-spacing="2">THE PROMPT NEVER DIES.</text>
</svg>
